<svg version="1.2" xmlns="http://www.w3.org/2000/svg" viewBox="0 0 376 25" width="376" height="25"><style>.a{fill:#e3c086}</style><filter id="f0"><feFlood flood-color="#a96d77" flood-opacity="1" /><feBlend mode="normal" in2="SourceGraphic"/><feComposite in2="SourceAlpha" operator="in" /></filter><g filter="url(#f0)"><path class="a" d="m175.4 12.2c6.7 0 12.2-5.4 12.2-12.2 0 6.8 5.5 12.2 12.2 12.2-6.7 0-12.2 5.5-12.2 12.2 0-6.7-5.5-12.2-12.2-12.2z"/><path class="a" d="m161.6 12.2c3.4 0 6.1-2.7 6.1-6.1 0 3.4 2.7 6.1 6.1 6.1-3.4 0-6.1 2.8-6.1 6.1 0-3.3-2.7-6.1-6.1-6.1z"/><path class="a" d="m201.4 12.2c3.4 0 6.1-2.7 6.1-6.1 0 3.4 2.8 6.1 6.1 6.1-3.3 0-6.1 2.8-6.1 6.1 0-3.3-2.7-6.1-6.1-6.1z"/></g></svg>