<?xml version="1.0" encoding="UTF-8"?>
<svg id="Layer_2" data-name="Layer 2" xmlns="http://www.w3.org/2000/svg" xmlns:xlink="http://www.w3.org/1999/xlink" viewBox="0 0 40 3000">
  <defs>
    <style>
      .cls-1 {
        fill: none;
      }

      .cls-2 {
        fill: url(#New_Pattern_3);
        opacity: .38;
      }

      .cls-3 {
        fill: #e9c5c3;
      }
    </style>
    <pattern id="New_Pattern_3" data-name="New Pattern 3" x="0" y="0" width="61.86" height="66.46" patternTransform="translate(-2374.55 2391.22)" patternUnits="userSpaceOnUse" viewBox="0 0 61.86 66.46">
      <g>
        <rect class="cls-1" width="61.86" height="66.46"/>
        <g>
          <g>
            <path class="cls-3" d="M30.93,82.66v.41c-.11.01-.23-.03-.35-.1-4.17-2.42-8.34-4.83-12.51-7.25-.06-.03-.12-.08-.23-.15v-.49c0-3.68-.01-7.37.01-11.05,0-.36-.11-.56-.43-.73-.57-.3-1.13-.64-1.69-.96-.15-.08-.27-.15-.45-.04-.72.43-1.46.84-2.21,1.28v.53c0,3.67-.01,7.34,0,11.01,0,.34-.09.52-.39.69-4.1,2.36-8.19,4.73-12.28,7.11-.14.08-.27.12-.4.13v-.4c.84-.48,1.68-.96,2.51-1.44,3.25-1.88,6.49-3.77,9.75-5.64.3-.18.42-.36.42-.72-.01-3.66-.01-7.31-.01-10.97v-.55c.93-.54,1.85-1.07,2.79-1.62.87.5,1.76,1,2.63,1.52.08.04.13.18.16.28.02.11.01.23.01.35v11.49c4.22,2.44,8.43,4.88,12.65,7.32,0,0,0-.01.02-.01Z"/>
            <path class="cls-3" d="M30.93,76.58v.48c-.11,0-.23-.03-.35-.1-2.42-1.4-4.85-2.79-7.27-4.18-.09-.05-.17-.11-.29-.19v-.51c0-3.67-.01-7.34.01-11.01,0-.34-.1-.52-.4-.69-2.28-1.31-4.56-2.63-6.83-3.95-.22-.13-.4-.18-.65-.04-2.35,1.37-4.71,2.72-7.07,4.07-.05.03-.1.07-.17.13v11.96c-.45.27-.88.52-1.32.77l-6.21,3.6c-.14.07-.26.12-.38.12v-.47c.11,0,.23-.04.36-.12,2.24-1.31,4.5-2.61,6.75-3.91.11-.07.22-.14.37-.23v-11.3c0-.84-.12-.61.58-1.02,2.33-1.34,4.67-2.67,7-4.02.3-.18.51-.16.8.01,2.4,1.4,4.8,2.79,7.21,4.17.29.16.38.34.37.66-.01,3.7,0,7.4-.01,11.1,0,.34.1.53.4.69,2.25,1.28,4.49,2.56,6.73,3.86.13.08.25.12.37.12Z"/>
            <path class="cls-3" d="M30.93,70.7v.41c-.11,0-.2-.04-.32-.11-.69-.41-1.37-.82-2.07-1.2-.26-.14-.34-.31-.34-.59.01-3.05.01-6.1.01-9.15,0-.68-.02-1.36,0-2.04.01-.31-.09-.47-.36-.62-3.74-2.15-7.47-4.32-11.21-6.48-.29-.17-.6-.33-.88-.52-.22-.15-.4-.13-.64,0-1.34.8-2.71,1.57-4.06,2.36-2.65,1.53-5.3,3.06-7.94,4.6-.12.06-.23.14-.38.23v.5c0,3.69,0,7.37,0,11.05,0,.34-.07.54-.38.7-.7.36-1.37.77-2.05,1.17-.11.07-.21.1-.31.1v-.41c.75-.43,1.51-.87,2.31-1.33v-.51c0-3.69.01-7.37,0-11.06,0-.33.09-.52.39-.69,4.11-2.37,8.22-4.74,12.32-7.13.3-.18.53-.19.85,0,4.11,2.39,8.23,4.77,12.35,7.15.31.17.39.36.39.7-.01,3.68,0,7.36-.02,11.05,0,.36.12.56.43.72.64.34,1.26.72,1.91,1.1Z"/>
          </g>
          <g>
            <path class="cls-3" d="M30.93,82.66v.41c.11.01.23-.03.35-.1,4.17-2.42,8.34-4.83,12.51-7.25.06-.03.12-.08.23-.15v-.49c0-3.68.01-7.37-.01-11.05,0-.36.11-.56.43-.73.57-.3,1.13-.64,1.69-.96.15-.08.27-.15.45-.04.72.43,1.46.84,2.21,1.28v.53c0,3.67.01,7.34,0,11.01,0,.34.09.52.39.69,4.1,2.36,8.19,4.73,12.28,7.11.14.08.27.12.4.13v-.4c-.84-.48-1.68-.96-2.51-1.44-3.25-1.88-6.49-3.77-9.75-5.64-.3-.18-.42-.36-.42-.72.01-3.66.01-7.31.01-10.97v-.55c-.93-.54-1.85-1.07-2.79-1.62-.87.5-1.76,1-2.63,1.52-.08.04-.13.18-.16.28-.02.11-.01.23-.01.35v11.49c-4.22,2.44-8.43,4.88-12.65,7.32,0,0,0-.01-.02-.01Z"/>
            <path class="cls-3" d="M30.93,76.58v.48c.11,0,.23-.03.35-.1,2.42-1.4,4.85-2.79,7.27-4.18.09-.05.17-.11.29-.19v-.51c0-3.67.01-7.34-.01-11.01,0-.34.1-.52.4-.69,2.28-1.31,4.56-2.63,6.83-3.95.22-.13.4-.18.65-.04,2.35,1.37,4.71,2.72,7.07,4.07.05.03.1.07.17.13v11.96c.45.27.88.52,1.32.77l6.21,3.6c.14.07.26.12.38.12v-.47c-.11,0-.23-.04-.36-.12-2.24-1.31-4.5-2.61-6.75-3.91-.11-.07-.22-.14-.37-.23v-11.3c0-.84.12-.61-.58-1.02-2.33-1.34-4.67-2.67-7-4.02-.3-.18-.51-.16-.8.01-2.4,1.4-4.8,2.79-7.21,4.17-.29.16-.38.34-.37.66.01,3.7,0,7.4.01,11.1,0,.34-.1.53-.4.69-2.25,1.28-4.49,2.56-6.73,3.86-.13.08-.25.12-.37.12Z"/>
            <path class="cls-3" d="M30.93,70.7v.41c.11,0,.2-.04.32-.11.69-.41,1.37-.82,2.07-1.2.26-.14.34-.31.34-.59-.01-3.05-.01-6.1-.01-9.15,0-.68.02-1.36,0-2.04-.01-.31.09-.47.36-.62,3.74-2.15,7.47-4.32,11.21-6.48.29-.17.6-.33.88-.52.22-.15.4-.13.64,0,1.34.8,2.71,1.57,4.06,2.36,2.65,1.53,5.3,3.06,7.94,4.6.12.06.23.14.38.23v.5c0,3.69,0,7.37,0,11.05,0,.34.07.54.38.7.7.36,1.37.77,2.05,1.17.11.07.21.1.31.1v-.41c-.75-.43-1.51-.87-2.31-1.33v-.51c0-3.69-.01-7.37,0-11.06,0-.33-.09-.52-.39-.69-4.11-2.37-8.22-4.74-12.32-7.13-.3-.18-.53-.19-.85,0-4.11,2.39-8.23,4.77-12.35,7.15-.31.17-.39.36-.39.7.01,3.68,0,7.36.02,11.05,0,.36-.12.56-.43.72-.64.34-1.26.72-1.91,1.1Z"/>
          </g>
        </g>
        <g>
          <g>
            <path class="cls-3" d="M30.93,49.43v.41c-.11.01-.23-.03-.35-.1-4.17-2.42-8.34-4.83-12.51-7.25-.06-.03-.12-.08-.23-.15v-.49c0-3.68-.01-7.37.01-11.05,0-.36-.11-.56-.43-.73-.57-.3-1.13-.64-1.69-.96-.15-.08-.27-.15-.45-.04-.72.43-1.46.84-2.21,1.28v.53c0,3.67-.01,7.34,0,11.01,0,.34-.09.52-.39.69-4.1,2.36-8.19,4.73-12.28,7.11-.14.08-.27.12-.4.13v-.4c.84-.48,1.68-.96,2.51-1.44,3.25-1.88,6.49-3.77,9.75-5.64.3-.18.42-.36.42-.72-.01-3.66-.01-7.31-.01-10.97v-.55c.93-.54,1.85-1.07,2.79-1.62.87.5,1.76,1,2.63,1.52.08.04.13.18.16.28.02.11.01.23.01.35v11.49c4.22,2.44,8.43,4.88,12.65,7.32,0,0,0-.01.02-.01Z"/>
            <path class="cls-3" d="M30.93,43.35v.48c-.11,0-.23-.03-.35-.1-2.42-1.4-4.85-2.79-7.27-4.18-.09-.05-.17-.11-.29-.19v-.51c0-3.67-.01-7.34.01-11.01,0-.34-.1-.52-.4-.69-2.28-1.31-4.56-2.63-6.83-3.95-.22-.13-.4-.18-.65-.04-2.35,1.37-4.71,2.72-7.07,4.07-.05.03-.1.07-.17.13v11.96c-.45.27-.88.52-1.32.77l-6.21,3.6c-.14.07-.26.12-.38.12v-.47c.11,0,.23-.04.36-.12,2.24-1.31,4.5-2.61,6.75-3.91.11-.07.22-.14.37-.23v-11.3c0-.84-.12-.61.58-1.02,2.33-1.34,4.67-2.67,7-4.02.3-.18.51-.16.8.01,2.4,1.4,4.8,2.79,7.21,4.17.29.16.38.34.37.66-.01,3.7,0,7.4-.01,11.1,0,.34.1.53.4.69,2.25,1.28,4.49,2.56,6.73,3.86.13.08.25.12.37.12Z"/>
            <path class="cls-3" d="M30.93,37.47v.41c-.11,0-.2-.04-.32-.11-.69-.41-1.37-.82-2.07-1.2-.26-.14-.34-.31-.34-.59.01-3.05.01-6.1.01-9.15,0-.68-.02-1.36,0-2.04.01-.31-.09-.47-.36-.62-3.74-2.15-7.47-4.32-11.21-6.48-.29-.17-.6-.33-.88-.52-.22-.15-.4-.13-.64,0-1.34.8-2.71,1.57-4.06,2.36-2.65,1.53-5.3,3.06-7.94,4.6-.12.06-.23.14-.38.23v.5c0,3.69,0,7.37,0,11.05,0,.34-.07.54-.38.7-.7.36-1.37.77-2.05,1.17-.11.07-.21.1-.31.1v-.41c.75-.43,1.51-.87,2.31-1.33v-.51c0-3.69.01-7.37,0-11.06,0-.33.09-.52.39-.69,4.11-2.37,8.22-4.74,12.32-7.13.3-.18.53-.19.85,0,4.11,2.39,8.23,4.77,12.35,7.15.31.17.39.36.39.7-.01,3.68,0,7.36-.02,11.05,0,.36.12.56.43.72.64.34,1.26.72,1.91,1.1Z"/>
          </g>
          <g>
            <path class="cls-3" d="M30.93,49.43v.41c.11.01.23-.03.35-.1,4.17-2.42,8.34-4.83,12.51-7.25.06-.03.12-.08.23-.15v-.49c0-3.68.01-7.37-.01-11.05,0-.36.11-.56.43-.73.57-.3,1.13-.64,1.69-.96.15-.08.27-.15.45-.04.72.43,1.46.84,2.21,1.28v.53c0,3.67.01,7.34,0,11.01,0,.34.09.52.39.69,4.1,2.36,8.19,4.73,12.28,7.11.14.08.27.12.4.13v-.4c-.84-.48-1.68-.96-2.51-1.44-3.25-1.88-6.49-3.77-9.75-5.64-.3-.18-.42-.36-.42-.72.01-3.66.01-7.31.01-10.97v-.55c-.93-.54-1.85-1.07-2.79-1.62-.87.5-1.76,1-2.63,1.52-.08.04-.13.18-.16.28-.02.11-.01.23-.01.35v11.49c-4.22,2.44-8.43,4.88-12.65,7.32,0,0,0-.01-.02-.01Z"/>
            <path class="cls-3" d="M30.93,43.35v.48c.11,0,.23-.03.35-.1,2.42-1.4,4.85-2.79,7.27-4.18.09-.05.17-.11.29-.19v-.51c0-3.67.01-7.34-.01-11.01,0-.34.1-.52.4-.69,2.28-1.31,4.56-2.63,6.83-3.95.22-.13.4-.18.65-.04,2.35,1.37,4.71,2.72,7.07,4.07.05.03.1.07.17.13v11.96c.45.27.88.52,1.32.77l6.21,3.6c.14.07.26.12.38.12v-.47c-.11,0-.23-.04-.36-.12-2.24-1.31-4.5-2.61-6.75-3.91-.11-.07-.22-.14-.37-.23v-11.3c0-.84.12-.61-.58-1.02-2.33-1.34-4.67-2.67-7-4.02-.3-.18-.51-.16-.8.01-2.4,1.4-4.8,2.79-7.21,4.17-.29.16-.38.34-.37.66.01,3.7,0,7.4.01,11.1,0,.34-.1.53-.4.69-2.25,1.28-4.49,2.56-6.73,3.86-.13.08-.25.12-.37.12Z"/>
            <path class="cls-3" d="M30.93,37.47v.41c.11,0,.2-.04.32-.11.69-.41,1.37-.82,2.07-1.2.26-.14.34-.31.34-.59-.01-3.05-.01-6.1-.01-9.15,0-.68.02-1.36,0-2.04-.01-.31.09-.47.36-.62,3.74-2.15,7.47-4.32,11.21-6.48.29-.17.6-.33.88-.52.22-.15.4-.13.64,0,1.34.8,2.71,1.57,4.06,2.36,2.65,1.53,5.3,3.06,7.94,4.6.12.06.23.14.38.23v.5c0,3.69,0,7.37,0,11.05,0,.34.07.54.38.7.7.36,1.37.77,2.05,1.17.11.07.21.1.31.1v-.41c-.75-.43-1.51-.87-2.31-1.33v-.51c0-3.69-.01-7.37,0-11.06,0-.33-.09-.52-.39-.69-4.11-2.37-8.22-4.74-12.32-7.13-.3-.18-.53-.19-.85,0-4.11,2.39-8.23,4.77-12.35,7.15-.31.17-.39.36-.39.7.01,3.68,0,7.36.02,11.05,0,.36-.12.56-.43.72-.64.34-1.26.72-1.91,1.1Z"/>
          </g>
        </g>
        <g>
          <g>
            <path class="cls-3" d="M30.93,16.2v.41c-.11.01-.23-.03-.35-.1-4.17-2.42-8.34-4.83-12.51-7.25-.06-.03-.12-.08-.23-.15v-.49c0-3.68-.01-7.37.01-11.05,0-.36-.11-.56-.43-.73-.57-.3-1.13-.64-1.69-.96-.15-.08-.27-.15-.45-.04-.72.43-1.46.84-2.21,1.28v.53c0,3.67-.01,7.34,0,11.01,0,.34-.09.52-.39.69-4.1,2.36-8.19,4.73-12.28,7.11-.14.08-.27.12-.4.13v-.4c.84-.48,1.68-.96,2.51-1.44,3.25-1.88,6.49-3.77,9.75-5.64.3-.18.42-.36.42-.72-.01-3.66-.01-7.31-.01-10.97v-.55c.93-.54,1.85-1.07,2.79-1.62.87.5,1.76,1,2.63,1.52.08.04.13.18.16.28.02.11.01.23.01.35v11.49c4.22,2.44,8.43,4.88,12.65,7.32,0,0,0-.01.02-.01Z"/>
            <path class="cls-3" d="M30.93,10.12v.48c-.11,0-.23-.03-.35-.1-2.42-1.4-4.85-2.79-7.27-4.18-.09-.05-.17-.11-.29-.19v-.51c0-3.67-.01-7.34.01-11.01,0-.34-.1-.52-.4-.69-2.28-1.31-4.56-2.63-6.83-3.95-.22-.13-.4-.18-.65-.04-2.35,1.37-4.71,2.72-7.07,4.07-.05.03-.1.07-.17.13V6.09c-.45.27-.88.52-1.32.77L.38,10.46c-.14.07-.26.12-.38.12v-.47c.11,0,.23-.04.36-.12,2.24-1.31,4.5-2.61,6.75-3.91.11-.07.22-.14.37-.23V-5.45c0-.84-.12-.61.58-1.02,2.33-1.34,4.67-2.67,7-4.02.3-.18.51-.16.8.01,2.4,1.4,4.8,2.79,7.21,4.17.29.16.38.34.37.66-.01,3.7,0,7.4-.01,11.1,0,.34.1.53.4.69,2.25,1.28,4.49,2.56,6.73,3.86.13.08.25.12.37.12Z"/>
            <path class="cls-3" d="M30.93,4.24v.41c-.11,0-.2-.04-.32-.11-.69-.41-1.37-.82-2.07-1.2-.26-.14-.34-.31-.34-.59.01-3.05.01-6.1.01-9.15,0-.68-.02-1.36,0-2.04.01-.31-.09-.47-.36-.62-3.74-2.15-7.47-4.32-11.21-6.48-.29-.17-.6-.33-.88-.52-.22-.15-.4-.13-.64,0-1.34.8-2.71,1.57-4.06,2.36-2.65,1.53-5.3,3.06-7.94,4.6-.12.06-.23.14-.38.23v.5c0,3.69,0,7.37,0,11.05,0,.34-.07.54-.38.7-.7.36-1.37.77-2.05,1.17-.11.07-.21.1-.31.1v-.41c.75-.43,1.51-.87,2.31-1.33v-.51c0-3.69.01-7.37,0-11.06,0-.33.09-.52.39-.69,4.11-2.37,8.22-4.74,12.32-7.13.3-.18.53-.19.85,0,4.11,2.39,8.23,4.77,12.35,7.15.31.17.39.36.39.7-.01,3.68,0,7.36-.02,11.05,0,.36.12.56.43.72.64.34,1.26.72,1.91,1.1Z"/>
          </g>
          <g>
            <path class="cls-3" d="M30.93,16.2v.41c.11.01.23-.03.35-.1,4.17-2.42,8.34-4.83,12.51-7.25.06-.03.12-.08.23-.15v-.49c0-3.68.01-7.37-.01-11.05,0-.36.11-.56.43-.73.57-.3,1.13-.64,1.69-.96.15-.08.27-.15.45-.04.72.43,1.46.84,2.21,1.28v.53c0,3.67.01,7.34,0,11.01,0,.34.09.52.39.69,4.1,2.36,8.19,4.73,12.28,7.11.14.08.27.12.4.13v-.4c-.84-.48-1.68-.96-2.51-1.44-3.25-1.88-6.49-3.77-9.75-5.64-.3-.18-.42-.36-.42-.72.01-3.66.01-7.31.01-10.97v-.55c-.93-.54-1.85-1.07-2.79-1.62-.87.5-1.76,1-2.63,1.52-.08.04-.13.18-.16.28-.02.11-.01.23-.01.35v11.49c-4.22,2.44-8.43,4.88-12.65,7.32,0,0,0-.01-.02-.01Z"/>
            <path class="cls-3" d="M30.93,10.12v.48c.11,0,.23-.03.35-.1,2.42-1.4,4.85-2.79,7.27-4.18.09-.05.17-.11.29-.19v-.51c0-3.67.01-7.34-.01-11.01,0-.34.1-.52.4-.69,2.28-1.31,4.56-2.63,6.83-3.95.22-.13.4-.18.65-.04,2.35,1.37,4.71,2.72,7.07,4.07.05.03.1.07.17.13V6.09c.45.27.88.52,1.32.77l6.21,3.6c.14.07.26.12.38.12v-.47c-.11,0-.23-.04-.36-.12-2.24-1.31-4.5-2.61-6.75-3.91-.11-.07-.22-.14-.37-.23V-5.45c0-.84.12-.61-.58-1.02-2.33-1.34-4.67-2.67-7-4.02-.3-.18-.51-.16-.8.01-2.4,1.4-4.8,2.79-7.21,4.17-.29.16-.38.34-.37.66.01,3.7,0,7.4.01,11.1,0,.34-.1.53-.4.69-2.25,1.28-4.49,2.56-6.73,3.86-.13.08-.25.12-.37.12Z"/>
            <path class="cls-3" d="M30.93,4.24v.41c.11,0,.2-.04.32-.11.69-.41,1.37-.82,2.07-1.2.26-.14.34-.31.34-.59-.01-3.05-.01-6.1-.01-9.15,0-.68.02-1.36,0-2.04-.01-.31.09-.47.36-.62,3.74-2.15,7.47-4.32,11.21-6.48.29-.17.6-.33.88-.52.22-.15.4-.13.64,0,1.34.8,2.71,1.57,4.06,2.36,2.65,1.53,5.3,3.06,7.94,4.6.12.06.23.14.38.23v.5c0,3.69,0,7.37,0,11.05,0,.34.07.54.38.7.7.36,1.37.77,2.05,1.17.11.07.21.1.31.1v-.41c-.75-.43-1.51-.87-2.31-1.33v-.51c0-3.69-.01-7.37,0-11.06,0-.33-.09-.52-.39-.69-4.11-2.37-8.22-4.74-12.32-7.13-.3-.18-.53-.19-.85,0-4.11,2.39-8.23,4.77-12.35,7.15-.31.17-.39.36-.39.7.01,3.68,0,7.36.02,11.05,0,.36-.12.56-.43.72-.64.34-1.26.72-1.91,1.1Z"/>
          </g>
        </g>
      </g>
    </pattern>
  </defs>
  <g id="Layer_1-2" data-name="Layer 1">
    <rect class="cls-2" width="40" height="3000"/>
  </g>
</svg>